<svg width="1280" height="3739" viewBox="0 0 1280 3739" fill="none" xmlns="http://www.w3.org/2000/svg">
<g clip-path="url(#clip0_189_213)">
<rect width="1280" height="3739" fill="#F4F4F4"/>
<g filter="url(#filter0_f_189_213)">
<path d="M332.391 1327.76C189.5 1467.5 233.325 1349.36 75.0476 1251.18C87.7386 1246.57 69.1082 1244.7 -106.941 1274.12C-327.002 1310.89 -91.4984 957.774 -104.052 923.238C-116.605 888.702 -27.3607 730.736 -44.1668 585.936C-57.6117 470.097 190.205 450.443 315.795 455.097C315.795 455.097 541.421 567.584 550.396 703.193C553.147 744.759 555.646 773.529 536.674 805.585C517.588 837.833 455.849 742.36 460.707 853.775C465.565 965.19 446.703 1215.97 332.391 1327.76Z" fill="url(#paint0_linear_189_213)"/>
</g>
<g filter="url(#filter1_f_189_213)">
<path d="M1272.08 2268.03C1125.12 2422 1167.43 2300.95 995.348 2223.42C1008.69 2217.39 988.788 2217.76 802.479 2267.46C569.592 2329.59 807.295 1955.4 792.664 1923.02C778.033 1890.64 867.224 1725.15 844.016 1585.14C825.449 1473.14 1088.51 1424.51 1222.36 1414.2C1222.36 1414.2 1466.65 1497.79 1481.19 1629.72C1485.64 1670.16 1489.36 1698.07 1470.34 1731.76C1451.21 1765.64 1381.99 1679.33 1391.25 1788.01C1400.52 1896.7 1389.65 2144.86 1272.08 2268.03Z" fill="url(#paint1_linear_189_213)"/>
</g>
<g filter="url(#filter2_f_189_213)">
<path d="M610.583 4442.53C387.35 4613.79 467.198 4464.27 258.172 4328.05C276.819 4322.88 250.751 4083.28 -2.70172 4110.36C-319.518 4144.21 -111.394 3576.67 -123.928 3531.4C-136.462 3486.13 -55.986 3233.13 -57.8652 3045.53C-59.3685 2895.45 630.704 3167.81 807.635 3181.53C807.635 3181.53 1021.16 3239.91 1013.36 3415.18C1010.96 3468.9 1010.15 3506.13 978.467 3546.26C946.596 3586.64 1101.7 3803.75 1091.73 3947.6C1081.75 4091.44 789.169 4305.52 610.583 4442.53Z" fill="url(#paint2_linear_189_213)"/>
</g>
<g filter="url(#filter3_f_189_213)">
<path d="M550.583 4279.53C327.35 4450.79 407.198 4301.27 198.172 4165.05C216.819 4159.88 190.751 3920.28 -62.7017 3947.36C-379.518 3981.21 -171.394 3413.67 -183.928 3368.4C-196.462 3323.13 -115.986 3070.13 -117.865 2882.53C-119.368 2732.45 570.704 3004.81 747.635 3018.53C747.635 3018.53 961.164 3076.91 953.356 3252.18C950.963 3305.9 950.148 3343.13 918.467 3383.26C886.596 3423.64 1041.7 3640.75 1031.73 3784.6C1021.75 3928.44 729.169 4142.52 550.583 4279.53Z" fill="url(#paint3_linear_189_213)"/>
</g>
</g>
<defs>
<filter id="filter0_f_189_213" x="-401.308" y="254.481" width="1153.59" height="1337.36" filterUnits="userSpaceOnUse" color-interpolation-filters="sRGB">
<feFlood flood-opacity="0" result="BackgroundImageFix"/>
<feBlend mode="normal" in="SourceGraphic" in2="BackgroundImageFix" result="shape"/>
<feGaussianBlur stdDeviation="100" result="effect1_foregroundBlur_189_213"/>
</filter>
<filter id="filter1_f_189_213" x="399.68" y="1114.2" width="1385.1" height="1528.08" filterUnits="userSpaceOnUse" color-interpolation-filters="sRGB">
<feFlood flood-opacity="0" result="BackgroundImageFix"/>
<feBlend mode="normal" in="SourceGraphic" in2="BackgroundImageFix" result="shape"/>
<feGaussianBlur stdDeviation="150" result="effect1_foregroundBlur_189_213"/>
</filter>
<filter id="filter2_f_189_213" x="-479.529" y="2700.54" width="1871.72" height="2118.8" filterUnits="userSpaceOnUse" color-interpolation-filters="sRGB">
<feFlood flood-opacity="0" result="BackgroundImageFix"/>
<feBlend mode="normal" in="SourceGraphic" in2="BackgroundImageFix" result="shape"/>
<feGaussianBlur stdDeviation="150" result="effect1_foregroundBlur_189_213"/>
</filter>
<filter id="filter3_f_189_213" x="-539.529" y="2537.54" width="1871.72" height="2118.8" filterUnits="userSpaceOnUse" color-interpolation-filters="sRGB">
<feFlood flood-opacity="0" result="BackgroundImageFix"/>
<feBlend mode="normal" in="SourceGraphic" in2="BackgroundImageFix" result="shape"/>
<feGaussianBlur stdDeviation="150" result="effect1_foregroundBlur_189_213"/>
</filter>
<linearGradient id="paint0_linear_189_213" x1="8.02207" y1="500.307" x2="321.933" y2="1363.93" gradientUnits="userSpaceOnUse">
<stop stop-color="#C0B6F0"/>
<stop offset="1" stop-color="#EFA7B3"/>
</linearGradient>
<linearGradient id="paint1_linear_189_213" x1="896.421" y1="1494.99" x2="1262.28" y2="2304.74" gradientUnits="userSpaceOnUse">
<stop stop-color="#F5B97B"/>
<stop offset="1" stop-color="#A8D5C4"/>
</linearGradient>
<linearGradient id="paint2_linear_189_213" x1="276.892" y1="3120.43" x2="590.323" y2="4252.44" gradientUnits="userSpaceOnUse">
<stop stop-color="#EFA7B3"/>
<stop offset="0.475" stop-color="#C0B6F0"/>
<stop offset="1" stop-color="#A3D1DA"/>
</linearGradient>
<linearGradient id="paint3_linear_189_213" x1="216.892" y1="2957.43" x2="530.323" y2="4089.44" gradientUnits="userSpaceOnUse">
<stop stop-color="#A3D1DA"/>
<stop offset="0.525" stop-color="#C0B6F0"/>
<stop offset="1" stop-color="#EFA7B3"/>
</linearGradient>
<clipPath id="clip0_189_213">
<rect width="1280" height="3739" fill="white"/>
</clipPath>
</defs>
</svg>
